# xmcd CD database file
#
# Track frame offsets:
#	150
#	20535
#	39090
#	59552
#
# Disc length: 1038 seconds
#
# Revision: 0
# Processed by: cddbd v1.5PL3 Copyright (c) Steve Scherf et al.
# Submitted via: CDex 1.51
#
DISCID=2a040c04
DTITLE=小枝 - キラリ★セーラードリーム!
DYEAR=2003
DGENRE=Anime
TTITLE0=キラリ★セーラードリーム!
TTITLE1=C'est la vie〜私のなかの恋する部分
TTITLE2=キラリ★セーラードリーム!(オリジナル･カラオケ)
TTITLE3=C'est la vie〜私のなかの恋する部分(オリジナル･カラオケ)
EXTD=YEAR: 20031119
EXTT0=
EXTT1=
EXTT2=
EXTT3=
PLAYORDER=
